<svg xmlns="http://www.w3.org/2000/svg" viewBox="0 0 712 480" fill="none" aria-hidden="true">
  <defs>
    <linearGradient id="g" x1="0%" y1="0%" x2="100%" y2="100%">
      <stop offset="0%" style="stop-color:#1a3d2e"/>
      <stop offset="50%" style="stop-color:#0f2818"/>
      <stop offset="100%" style="stop-color:#1e4a36"/>
    </linearGradient>
    <linearGradient id="lay" x1="0%" y1="0%" x2="0%" y2="100%">
      <stop offset="0%" style="stop-color:#c4a574;stop-opacity:0.35"/>
      <stop offset="100%" style="stop-color:#8b7355;stop-opacity:0.55"/>
    </linearGradient>
  </defs>
  <rect width="712" height="480" fill="url(#g)"/>
  <g opacity="0.12" stroke="#7cb89a" stroke-width="0.6">
    <path d="M0 40h712M0 80h712M0 120h712M0 160h712M0 200h712M0 240h712M0 280h712M0 320h712M0 360h712M0 400h712M0 440h712"/>
    <path d="M40 0v480M80 0v480M120 0v480M160 0v480M200 0v480M240 0v480M280 0v480M320 0v480M360 0v480M400 0v480M440 0v480M480 0v480M520 0v480M560 0v480M600 0v480M640 0v480M680 0v480"/>
  </g>
  <circle cx="356" cy="240" r="118" stroke="url(#lay)" stroke-width="14" fill="none"/>
  <circle cx="356" cy="240" r="72" stroke="url(#lay)" stroke-width="10" fill="none"/>
  <circle cx="356" cy="240" r="34" stroke="url(#lay)" stroke-width="8" fill="none"/>
  <path d="M356 122v236M238 240h236" stroke="url(#lay)" stroke-width="6" opacity="0.5"/>
</svg>
